<svg width="90" height="90" viewBox="0 0 90 90" fill="none" xmlns="http://www.w3.org/2000/svg">
<rect width="90" height="90" rx="8" fill="white"/>
<path d="M44.8379 37.875V46.3359H55.2285L54.1895 57.1719L44.8379 59.6953V68.4531L62.0566 63.7031L62.2051 62.2188L64.1348 40.1016L64.4316 37.875H62.0566H44.8379ZM44.8379 20.9531V26.1484V29.2656H65.1738L65.3223 27.4844L65.7676 23.1797L65.916 20.9531H44.8379Z" fill="white"/>
<path d="M17.5921 75.4028L11.4935 7H78.5065L72.4014 75.392L44.959 83L17.5921 75.4028Z" fill="#264DE4"/>
<path d="M67.1748 71.0371L72.3921 12.5928H45V77.1848L67.1748 71.0371Z" fill="#2965F1"/>
<path d="M25.4745 37.9626L26.2264 46.3518H45V37.9626H25.4745ZM24.7263 29.3718H45V20.9824H23.9636L24.7263 29.3718ZM45 59.7505L44.9632 59.7603L35.6199 57.2375L35.0228 50.5465H26.601L27.7765 63.719L44.9614 68.4898L45 68.479V59.7505Z" fill="#EBEBEB"/>
<path d="M44.9711 37.9626V46.3518H55.3016L54.3278 57.2321L44.9711 59.7575V68.4856L62.1696 63.719L62.2958 62.3016L64.2671 40.2153L64.4719 37.9626L65.9864 20.9824H44.9711V29.3718H56.7925L56.0289 37.9626H44.9711Z" fill="white"/>
</svg>
