<svg width="90" height="90" viewBox="0 0 90 90" fill="none" xmlns="http://www.w3.org/2000/svg">
<rect width="90" height="90" rx="8" fill="white"/>
<g clip-path="url(#clip0_2919_5547)">
<path d="M43.0102 57.2806H46.8487V46.8118H56.5033V43.0895H46.8487V32.6207H43.0102V43.0895H33.4719V46.8118H43.0102V57.2806Z" fill="#E8762D"/>
<path d="M25.2132 72.4023H28.4701V63.0967H37.0778V60.1887H28.4701V50.7667H25.2132V60.1887H16.6055V63.0967H25.2132V72.4023Z" fill="#C72037"/>
<path d="M61.3888 38.7857H64.6457V29.4801H73.3697V26.6884H64.6457V17.2665H61.3888V26.6884H52.7811V29.4801H61.3888V38.7857Z" fill="#5B879B"/>
<path d="M43.5918 79.7304H46.3834V73.1001H52.3158V70.6574H46.3834V64.0272H43.5918V70.6574H37.7758V73.1001H43.5918V79.7304Z" fill="#5C6692"/>
<path d="M25.3295 38.7857H28.3538V29.3638H37.0778V26.6884H28.3538V17.2665H25.3295V26.6884H16.6055V29.3638H25.3295V38.7857Z" fill="#EB9129"/>
<path d="M71.276 52.7441H74.0677V46.2302H80V43.6712H74.0677V37.1572H71.276V43.6712H65.46V46.2302H71.276V52.7441Z" fill="#5C6692"/>
<path fill-rule="evenodd" clip-rule="evenodd" d="M61.3888 72.4023H64.6457V63.0967H73.3697V60.1887H64.6457V50.7667H61.3888V60.1887H52.7811V63.0967H61.3888V72.4023Z" fill="#1F457E"/>
<path d="M51.8505 18.8948V16.9174H46.0345V10.5198H43.9408V16.9174H38.1247V18.8948H43.9408V25.2924H46.0345V18.8948H51.8505ZM15.675 52.2787H17.7687V45.8811H23.5847V43.9037H17.7687V37.6224H15.675V43.9037H9.85895V45.9974L15.675 45.8811V52.2787Z" fill="#7199A6"/>
</g>
<defs>
<clipPath id="clip0_2919_5547">
<rect width="70.1411" height="69.2152" fill="white" transform="translate(9.85895 10.5176)"/>
</clipPath>
</defs>
</svg>
