<svg width="90" height="90" viewBox="0 0 90 90" fill="none" xmlns="http://www.w3.org/2000/svg">
<rect width="90" height="90" fill="white"/>
<path d="M44.5545 50.002L32.149 43.4311L10.615 32.0265C10.5954 32.0068 10.556 32.0068 10.5364 32.0068C9.75012 31.6326 8.94419 32.4205 9.23904 33.2084L20.2114 61.251L20.2134 61.2569C20.2252 61.2846 20.235 61.312 20.2468 61.3397C20.697 62.3856 21.6798 63.0315 22.7491 63.2856C22.8396 63.3055 22.9042 63.3232 23.0128 63.345C23.1209 63.3691 23.272 63.4019 23.4017 63.4118C23.4234 63.4137 23.443 63.4137 23.4646 63.4156H23.4804C23.4961 63.4178 23.5118 63.4178 23.5275 63.4196H23.5492C23.5629 63.4215 23.5786 63.4215 23.5924 63.4215H23.618C23.6337 63.4237 23.6494 63.4237 23.6651 63.4237C37.5613 64.9418 51.5809 64.9418 65.4771 63.4237C65.6441 63.4237 65.8073 63.4156 65.9644 63.4C66.0156 63.3941 66.0647 63.3882 66.114 63.3823C66.1199 63.3802 66.1276 63.3802 66.1335 63.3783C66.167 63.3743 66.2003 63.3684 66.2338 63.3624C66.2829 63.3565 66.3321 63.3468 66.3812 63.3369C66.4796 63.3152 66.5242 63.2996 66.6577 63.2535C66.7909 63.2076 67.0124 63.1273 67.1509 63.0604C67.2896 62.9935 67.3856 62.9292 67.5016 62.8564C67.6451 62.7656 67.7816 62.673 67.9201 62.569C67.9798 62.5231 68.0206 62.4938 68.0637 62.4524L68.0402 62.4387L44.5545 50.002Z" fill="#FF4B4B"/>
<path d="M78.5295 32.0268H78.5099L56.9679 43.4314L68.9429 61.3025L79.8877 33.2086V33.1692C80.163 32.3419 79.3178 31.5935 78.5295 32.0268Z" fill="#7D353B"/>
<path d="M45.7025 26.6041C45.152 25.7984 43.953 25.7984 43.4223 26.6041L32.149 43.4313L44.5545 50.0022L68.064 62.4524C68.2116 62.3076 68.3301 62.1664 68.4551 62.0173C68.632 61.7987 68.7971 61.5644 68.9426 61.3023L56.9677 43.4313L45.7025 26.6041Z" fill="#BD4043"/>
</svg>
