<svg width="90" height="90" viewBox="0 0 90 90" fill="none" xmlns="http://www.w3.org/2000/svg">
<rect width="90" height="90" rx="6" fill="white"/>
<path d="M15.293 69.7852C17.0508 69.7852 19.6875 66.0938 22.7637 65.5664C24.5215 65.5664 25.8398 69.2578 30.2344 69.7852C33.3105 69.7852 34.6289 66.0938 37.7051 66.0938C40.7812 66.0938 42.0996 69.7852 45.1758 69.7852C48.252 69.7852 49.5703 66.0938 52.6465 66.0938C55.7227 66.0938 57.041 69.7852 60.1172 69.7852C63.1934 69.7852 64.5117 66.0938 67.5879 66.0938C70.6641 66.0938 71.9824 69.7852 75.0586 69.7852" stroke="black" stroke-width="1.58203" stroke-linecap="round" stroke-linejoin="round"/>
<path d="M21.3047 66.1113L19.292 62.2617L71.1475 58.9219C67.0693 62.6309 61.8311 65.6367 56.5313 68.0977" stroke="black" stroke-width="1.58203" stroke-linecap="round" stroke-linejoin="round"/>
<path d="M39.9375 26.4023C48.7617 29.1006 61.1016 42.1348 65.3027 56.1445C63 55.2393 61.2773 54.3164 58.043 55.1426C54.9141 43.7607 49.3154 32.8887 39.9375 26.4023Z" stroke="black" stroke-width="1.58203" stroke-linecap="round" stroke-linejoin="round"/>
<path d="M23.5283 20.1709C34.8311 25.0049 50.335 38.4609 53.1826 56.3818C40.1484 51.126 30.2256 53.9297 23.3174 58.1924C33.8555 44.7978 29.127 29.5664 23.5283 20.1709Z" stroke="black" stroke-width="1.58203" stroke-linecap="round" stroke-linejoin="round"/>
</svg>
