<svg width="90" height="90" viewBox="0 0 90 90" fill="none" xmlns="http://www.w3.org/2000/svg">
<rect width="90" height="90" rx="8" fill="#001E36"/>
<path d="M18 64.225V25.6375C18 25.375 18.1125 25.225 18.375 25.225C19.0125 25.225 19.6125 25.225 20.475 25.1875C21.375 25.15 22.3125 25.15 23.325 25.1125C24.3375 25.075 25.425 25.075 26.5875 25.0375C27.75 25 28.875 25 30 25C33.075 25 35.625 25.375 37.725 26.1625C39.6 26.8 41.325 27.85 42.75 29.2375C43.95 30.4375 44.8875 31.9 45.4875 33.5125C46.05 35.0875 46.35 36.7 46.35 38.3875C46.35 41.6125 45.6 44.275 44.1 46.375C42.6 48.475 40.5 50.05 38.0625 50.95C35.5125 51.8875 32.7 52.225 29.625 52.225C28.725 52.225 28.125 52.225 27.75 52.1875C27.375 52.15 26.85 52.15 26.1375 52.15V64.1875C26.175 64.45 25.9875 64.675 25.725 64.7125C25.6875 64.7125 25.65 64.7125 25.575 64.7125H18.45C18.15 64.7125 18 64.5625 18 64.225ZM26.175 32.4625V45.0625C26.7 45.1 27.1875 45.1375 27.6375 45.1375H29.625C31.0875 45.1375 32.55 44.9125 33.9375 44.4625C35.1375 44.125 36.1875 43.4125 37.0125 42.475C37.8 41.5375 38.175 40.2625 38.175 38.6125C38.2125 37.45 37.9125 36.2875 37.3125 35.275C36.675 34.3 35.775 33.55 34.6875 33.1375C33.3 32.575 31.8 32.35 30.2625 32.3875C29.2875 32.3875 28.425 32.3875 27.7125 32.425C26.9625 32.3875 26.4375 32.425 26.175 32.4625Z" fill="#31A8FF"/>
<path d="M69.75 42.775C68.625 42.175 67.425 41.7625 66.15 41.5C64.7625 41.2 63.375 41.0125 61.95 41.0125C61.2 40.975 60.4125 41.0875 59.7 41.275C59.2125 41.3875 58.8 41.65 58.5375 42.025C58.35 42.325 58.2375 42.7 58.2375 43.0375C58.2375 43.375 58.3875 43.7125 58.6125 44.0125C58.95 44.425 59.4 44.7625 59.8875 45.025C60.75 45.475 61.65 45.8875 62.55 46.2625C64.575 46.9375 66.525 47.875 68.325 49C69.5625 49.7875 70.575 50.8375 71.2875 52.1125C71.8875 53.3125 72.1875 54.625 72.15 55.975C72.1875 57.7375 71.6625 59.5 70.6875 60.9625C69.6375 62.4625 68.175 63.625 66.4875 64.3C64.65 65.0875 62.4 65.5 59.7 65.5C57.975 65.5 56.2875 65.35 54.6 65.0125C53.2875 64.7875 51.975 64.375 50.775 63.8125C50.5125 63.6625 50.325 63.4 50.3625 63.1V56.575C50.3625 56.4625 50.4 56.3125 50.5125 56.2375C50.625 56.1625 50.7375 56.2 50.85 56.275C52.3125 57.1375 53.85 57.7375 55.5 58.1125C56.925 58.4875 58.425 58.675 59.925 58.675C61.35 58.675 62.3625 58.4875 63.0375 58.15C63.6375 57.8875 64.05 57.25 64.05 56.575C64.05 56.05 63.75 55.5625 63.15 55.075C62.55 54.5875 61.3125 54.025 59.475 53.3125C57.5625 52.6375 55.8 51.7375 54.15 50.6125C52.9875 49.7875 52.0125 48.7 51.3 47.425C50.7 46.225 50.4 44.9125 50.4375 43.6C50.4375 41.9875 50.8875 40.45 51.7125 39.0625C52.65 37.5625 54.0375 36.3625 55.65 35.6125C57.4125 34.7125 59.625 34.3 62.2875 34.3C63.825 34.3 65.4 34.4125 66.9375 34.6375C68.0625 34.7875 69.15 35.0875 70.1625 35.5C70.3125 35.5375 70.4625 35.6875 70.5375 35.8375C70.575 35.9875 70.6125 36.1375 70.6125 36.2875V42.4C70.6125 42.55 70.5375 42.7 70.425 42.775C70.0875 42.85 69.9 42.85 69.75 42.775Z" fill="#31A8FF"/>
</svg>
