<svg width="90" height="90" viewBox="0 0 90 90" fill="none" xmlns="http://www.w3.org/2000/svg">
<rect width="90" height="90" rx="8" fill="white"/>
<path fill-rule="evenodd" clip-rule="evenodd" d="M45 8C24.5575 8 8 24.5175 8 44.9106C8 61.2435 18.5912 75.0388 33.2987 79.9295C35.1487 80.2525 35.8425 79.1451 35.8425 78.1762C35.8425 77.2996 35.7963 74.3929 35.7963 71.3016C26.5 73.0088 24.095 69.0409 23.355 66.9646C22.9387 65.9035 21.135 62.6277 19.5625 61.751C18.2675 61.059 16.4175 59.3518 19.5163 59.3057C22.43 59.2596 24.5113 61.9817 25.205 63.089C28.535 68.6718 33.8538 67.1031 35.9813 66.1342C36.305 63.735 37.2762 62.1201 38.34 61.1974C30.1075 60.2746 21.505 57.0911 21.505 42.9728C21.505 38.9587 22.9388 35.6368 25.2975 33.0531C24.9275 32.1303 23.6325 28.347 25.6675 23.2718C25.6675 23.2718 28.7663 22.3028 35.8425 27.0551C38.8025 26.2246 41.9475 25.8094 45.0925 25.8094C48.2375 25.8094 51.3825 26.2246 54.3425 27.0551C61.4188 22.2567 64.5175 23.2718 64.5175 23.2718C66.5525 28.347 65.2575 32.1303 64.8875 33.0531C67.2463 35.6368 68.68 38.9126 68.68 42.9728C68.68 57.1372 60.0313 60.2746 51.7988 61.1974C53.14 62.3508 54.2963 64.5655 54.2963 68.0258C54.2963 72.9626 54.25 76.9305 54.25 78.1762C54.25 79.1451 54.9438 80.2986 56.7938 79.9295C71.4088 75.0388 82 61.1974 82 44.9106C82 24.5175 65.4425 8 45 8Z" fill="#1B1F23"/>
</svg>
