<svg width="24" height="24" viewBox="0 0 24 24" fill="none" xmlns="http://www.w3.org/2000/svg">
<path fill-rule="evenodd" clip-rule="evenodd" d="M4.06189 11H8.02515C8.1534 8.46015 8.76721 6.10777 9.75417 4.31953C6.73861 5.19984 4.45994 7.8079 4.06189 11ZM12 4.50495C10.9665 5.92369 10.182 8.23184 10.0277 11H13.9723C13.818 8.23184 13.0335 5.92369 12 4.50495ZM13.9723 13H10.0277C10.182 15.7682 10.9665 18.0763 12 19.495C13.0335 18.0763 13.818 15.7682 13.9723 13ZM9.75417 19.6805C8.76721 17.8922 8.1534 15.5399 8.02515 13H4.06189C4.45994 16.1921 6.73861 18.8002 9.75417 19.6805ZM14.2458 19.6805C15.2328 17.8922 15.8466 15.5399 15.9748 13H19.9381C19.5401 16.1921 17.2614 18.8002 14.2458 19.6805ZM19.9381 11H15.9748C15.8466 8.46015 15.2328 6.10777 14.2458 4.31953C17.2614 5.19984 19.5401 7.8079 19.9381 11ZM2 12C2 6.47715 6.47715 2 12 2C17.5228 2 22 6.47715 22 12C22 17.5228 17.5228 22 12 22C6.47715 22 2 17.5228 2 12Z" fill="black"/>
</svg>
