<svg width="90" height="90" viewBox="0 0 90 90" fill="none" xmlns="http://www.w3.org/2000/svg">
<rect width="90" height="90" fill="white"/>
<path d="M71.5603 62.1394C68.1825 62.0473 65.6029 62.3618 63.3974 63.2916C62.7709 63.5559 61.7707 63.5633 61.6684 64.3483C62.0129 64.7091 62.0665 65.2485 62.3402 65.6925C62.8668 66.5439 63.7557 67.6868 64.5491 68.2853C65.4164 68.9399 66.3097 69.6393 67.2389 70.2058C68.8917 71.2133 70.7369 71.7892 72.3282 72.7987C73.2663 73.3942 74.198 74.1438 75.113 74.8152C75.5658 75.1474 75.8694 75.6637 76.4576 75.8719V75.7764C76.1485 75.3826 76.0688 74.8422 75.7853 74.4312L74.5366 73.1826C73.316 71.5623 71.7661 70.1389 70.1187 68.9571C68.8051 68.0141 65.8652 66.7403 65.3174 65.2121L65.2215 65.1161C66.1527 65.0108 67.2429 64.6741 68.1027 64.4433C69.5468 64.0564 70.8373 64.1563 72.3282 63.7715L74.3447 63.1951V62.8112C73.5911 62.038 73.0536 61.0142 72.2322 60.3143C70.0813 58.4834 67.7346 56.6539 65.3179 55.1281C63.9772 54.2826 62.321 53.7328 60.9001 53.0157C60.4221 52.774 59.5825 52.6485 59.267 52.2469C58.5203 51.296 58.1143 50.0901 57.5389 48.9822C56.3335 46.6606 55.1498 44.1253 54.0818 41.6826C53.3533 40.017 52.8774 38.3751 51.9688 36.8808C47.608 29.7111 42.9145 25.3843 35.6435 21.1308C34.096 20.2261 32.2331 19.8693 30.2643 19.4017C29.2086 19.3382 28.1519 19.2738 27.0956 19.2093C26.4504 18.9406 25.78 18.1516 25.1751 17.7687C22.7664 16.2468 16.5874 12.9369 14.8037 17.2888C13.6771 20.0357 16.4875 22.7151 17.4921 24.1075C18.1979 25.0831 19.101 26.1782 19.605 27.2762C19.9368 27.9983 19.9939 28.7223 20.2779 29.4857C20.9753 31.3668 21.5831 33.4133 22.4863 35.1512C22.9426 36.0313 23.4456 36.9576 24.0229 37.7441C24.3763 38.2269 24.9832 38.4395 25.0786 39.1847C24.4861 40.0145 24.4521 41.3031 24.1189 42.3544C22.6177 47.0868 23.1842 52.9694 25.3676 56.4718C26.0369 57.5477 27.6154 59.8536 29.7849 58.9687C31.6828 58.196 31.259 55.8 31.8019 53.6865C31.9245 53.2076 31.8492 52.8552 32.0899 52.5343V52.6303L33.8189 56.0874C35.0986 58.1482 37.3686 60.3015 39.293 61.7545C40.2907 62.508 41.0762 63.8103 42.3662 64.2513V64.1549H42.2703C42.0202 63.7655 41.6289 63.6041 41.31 63.2911C40.5584 62.5543 39.7227 61.6383 39.1016 60.7942C37.3513 58.4184 35.8049 55.8182 34.3958 53.1117C33.7224 51.8187 33.1372 50.3933 32.5702 49.0777C32.3517 48.5707 32.3547 47.8034 31.8989 47.5411C31.2773 48.5048 30.3623 49.2844 29.8819 50.4223C29.1136 52.2415 29.0147 54.4602 28.7297 56.7607C28.5614 56.8208 28.6362 56.7794 28.5373 56.8562C27.1995 56.5338 26.7299 55.1572 26.2323 53.9754C24.9753 50.9879 24.7415 46.1782 25.8479 42.7393C26.1344 41.8489 27.4279 39.0474 26.9042 38.225C26.6541 37.405 25.8292 36.9305 25.3681 36.3039C24.7966 35.5292 24.2267 34.5094 23.8305 33.6146C22.8018 31.2861 22.3214 28.6711 21.2381 26.3165C20.7198 25.1908 19.8442 24.0514 19.1252 23.0513C18.3293 21.9424 17.4374 21.1259 16.8202 19.7856C16.6007 19.3092 16.3029 18.5463 16.6278 18.0566C16.7311 17.7263 16.8778 17.5885 17.2041 17.4807C17.7613 17.051 19.3127 17.6235 19.8925 17.8641C21.4325 18.504 22.7181 19.1133 24.0229 19.9776C24.6485 20.393 25.2824 21.1958 26.0394 21.4182H26.9037C28.2557 21.7288 29.7702 21.5142 31.0336 21.8981C33.2662 22.5763 35.2669 23.6321 37.0836 24.7794C42.6187 28.2749 47.1449 33.2499 50.2408 39.1852C50.7388 40.141 50.9544 41.0526 51.393 42.0665C52.2779 44.1105 53.3927 46.2136 54.2732 48.2129C55.1523 50.2073 56.0087 52.2198 57.251 53.8795C57.9041 54.7516 60.4261 55.2197 61.5729 55.7045C62.3761 56.0436 63.6927 56.398 64.4541 56.8562C65.9076 57.7333 67.3162 58.7772 68.6801 59.738C69.3608 60.2179 71.456 61.2716 71.5603 62.1394ZM28.6322 25.5496C27.9279 25.5364 27.4298 25.6264 26.9032 25.7411V25.8371H26.9992C27.3353 26.5271 27.9284 26.9721 28.3433 27.5661C28.6633 28.239 28.9837 28.9108 29.3041 29.5826L29.3996 29.4876C29.9946 29.0678 30.2668 28.3979 30.2634 27.3742C30.0251 27.1237 29.9902 26.8096 29.7835 26.5104C29.5098 26.1112 28.9787 25.8843 28.6322 25.5496Z" fill="#00618A"/>
</svg>
