<svg width="90" height="90" viewBox="0 0 90 90" fill="none" xmlns="http://www.w3.org/2000/svg">
<rect width="90" height="90" fill="white"/>
<path d="M52.5409 27.0125C45.8094 27.0125 39.1883 29.8817 34.112 35.5648V7.59045H24.1251V54.711C24.1251 69.9948 36.5398 82.4095 51.8236 82.4095C67.1075 82.4095 79.5221 69.9948 79.5221 54.711C79.5221 39.4272 67.8248 27.0125 52.5409 27.0125ZM51.8236 71.7605C42.3885 71.7605 34.7741 64.1462 34.7741 54.711C34.7741 45.331 42.3885 37.6615 51.8236 37.6615C61.2588 37.6615 68.8731 45.2759 68.8731 54.711C68.8731 64.091 61.2588 71.7605 51.8236 71.7605Z" fill="black"/>
<path d="M16.8419 82.4095C20.6205 82.4095 23.6837 79.3463 23.6837 75.5677C23.6837 71.789 20.6205 68.7258 16.8419 68.7258C13.0632 68.7258 10 71.789 10 75.5677C10 79.3463 13.0632 82.4095 16.8419 82.4095Z" fill="#0000FF"/>
</svg>
