<svg width="93" height="90" viewBox="0 0 93 90" fill="none" xmlns="http://www.w3.org/2000/svg">
<rect width="92.3077" height="90" fill="#49021F"/>
<path d="M33.5385 23.5385V63.1539C33.5385 63.577 33.3462 63.7693 33 63.7693H25.4615C25.1154 63.7693 24.9615 63.577 24.9615 63.1539V23.5385C24.9615 23.1923 25.1539 23.0385 25.5 23.0385H33C33.2308 23 33.4615 23.1539 33.5 23.4231C33.5385 23.4616 33.5385 23.5 33.5385 23.5385Z" fill="#FF3366"/>
<path d="M55.7693 64.2308C52.9231 64.2692 50.0769 63.6923 47.5 62.5C45.0769 61.3846 43.0769 59.5385 41.6923 57.2692C40.2693 54.9231 39.5769 52 39.5769 48.5C39.5385 45.6538 40.2693 42.8462 41.6923 40.3846C43.1539 37.8846 45.2693 35.8077 47.8077 34.4231C50.5 32.9231 53.7308 32.1923 57.5385 32.1923C57.7308 32.1923 58 32.1923 58.3462 32.2308C58.6923 32.2692 59.0769 32.2692 59.5385 32.3077V20.1538C59.5385 19.8846 59.6539 19.7308 59.9231 19.7308H67.7308C67.9231 19.6923 68.0769 19.8462 68.1154 20V20.0769V56.6923C68.1154 57.3846 68.1539 58.1538 68.1923 59C68.2693 59.8077 68.3077 60.5769 68.3462 61.2308C68.3462 61.5 68.2308 61.7308 67.9616 61.8462C65.9616 62.6923 63.8462 63.3077 61.6923 63.6923C59.7692 64.0385 57.7693 64.2308 55.7693 64.2308ZM59.5385 56.5385V39.6154C59.1923 39.5385 58.8462 39.4615 58.5 39.4231C58.0769 39.3846 57.6539 39.3462 57.2308 39.3462C55.7308 39.3462 54.2308 39.6538 52.8846 40.3462C51.5769 41 50.4616 41.9615 49.6154 43.1923C48.7693 44.4231 48.3462 46.0769 48.3462 48.0769C48.3077 49.4231 48.5385 50.7692 49 52.0385C49.3846 53.0769 49.9616 54 50.7308 54.7692C51.4616 55.4615 52.3462 56 53.3462 56.3077C54.3846 56.6538 55.4616 56.8077 56.5385 56.8077C57.1154 56.8077 57.6539 56.7692 58.1539 56.7308C58.6539 56.7692 59.1154 56.6923 59.5385 56.5385Z" fill="#FF3366"/>
</svg>
