<svg width="90" height="90" viewBox="0 0 90 90" fill="none" xmlns="http://www.w3.org/2000/svg">
<rect width="90" height="90" fill="white"/>
<path d="M28 53C28 56.3182 25.3182 59 22 59C18.6818 59 16 56.3182 16 53C16 49.6818 18.6818 47 22 47H28V53ZM31 53C31 49.6818 33.6818 47 37 47C40.3182 47 43 49.6818 43 53V68C43 71.3182 40.3182 74 37 74C33.6818 74 31 71.3182 31 68V53Z" fill="#E01E5A"/>
<path d="M37.0101 27.9798C33.6975 27.9798 31.0202 25.3025 31.0202 21.9899C31.0202 18.6773 33.6975 16 37.0101 16C40.3227 16 43 18.6773 43 21.9899V27.9798H37.0101ZM37.0101 31.0202C40.3227 31.0202 43 33.6975 43 37.0101C43 40.3227 40.3227 43 37.0101 43H21.9899C18.6773 43 16 40.3227 16 37.0101C16 33.6975 18.6773 31.0202 21.9899 31.0202H37.0101Z" fill="#36C5F0"/>
<path d="M62 37.0101C62 33.6975 64.6818 31.0202 68 31.0202C71.3182 31.0202 74 33.6975 74 37.0101C74 40.3227 71.3182 43 68 43H62V37.0101ZM59 37.0101C59 40.3227 56.3182 43 53 43C49.6818 43 47 40.3227 47 37.0101V21.9899C47 18.6773 49.6818 16 53 16C56.3182 16 59 18.6773 59 21.9899V37.0101Z" fill="#2EB67D"/>
<path d="M52.9899 62C56.3025 62 58.9798 64.6818 58.9798 68C58.9798 71.3182 56.3025 74 52.9899 74C49.6773 74 47 71.3182 47 68V62H52.9899ZM52.9899 59C49.6773 59 47 56.3182 47 53C47 49.6818 49.6773 47 52.9899 47H68.0101C71.3227 47 74 49.6818 74 53C74 56.3182 71.3227 59 68.0101 59H52.9899Z" fill="#ECB22E"/>
</svg>
