<svg width="90" height="90" viewBox="0 0 90 90" fill="none" xmlns="http://www.w3.org/2000/svg">
<rect width="90" height="90" fill="#891B26"/>
<path fill-rule="evenodd" clip-rule="evenodd" d="M40.9699 83.4081L18.3117 44.1783L6.59235 64.4684V79.8925C6.59235 81.8328 8.16735 83.4081 10.108 83.4081H40.9699ZM57.4925 83.4081H44.4284C44.4284 83.4081 27.5051 54.0977 21.8352 44.2918C20.7234 42.3689 20.7234 39.9991 21.8343 38.0758C23.8848 34.5279 26.5734 29.8748 26.5734 29.8748L57.4925 83.4081ZM74.0151 83.4081H60.951L28.4938 26.5493L34.8343 15.5726L74.0151 83.4081ZM83.4088 71.0663V79.8925C83.4088 81.8328 81.8338 83.4081 79.8932 83.4081H77.4736L36.5631 12.579L40.0216 6.5918H46.1695L83.4088 71.0663ZM79.8932 6.5918H49.6272L83.4088 65.079V10.1074C83.4088 8.16706 81.8338 6.5918 79.8932 6.5918Z" fill="url(#paint0_radial_3063_6195)"/>
<defs>
<radialGradient id="paint0_radial_3063_6195" cx="0" cy="0" r="1" gradientUnits="userSpaceOnUse" gradientTransform="translate(65.2989 -7.84513) scale(91.2534 91.2532)">
<stop stop-color="#FFAE71"/>
<stop offset="1" stop-color="#FF9350"/>
</radialGradient>
</defs>
</svg>
