<svg width="90" height="90" viewBox="0 0 90 90" fill="none" xmlns="http://www.w3.org/2000/svg">
<rect width="90" height="90" fill="white"/>
<path d="M23.9567 13.2151L44.9093 11L65.8618 13.2151L82.0831 34.9908L44.9093 78.2794L7.73541 34.9908L23.9567 13.2151Z" fill="#FDB300"/>
<path d="M22.7927 34.9908L44.9093 78.2794L7.73541 34.9908H22.7927Z" fill="#EA6C00"/>
<path d="M67.0258 34.9908L44.9092 78.2794L82.0831 34.9908H67.0258Z" fill="#EA6C00"/>
<path d="M22.7927 34.9908H67.0259L44.9093 78.2794L22.7927 34.9908Z" fill="#FDAD00"/>
<path d="M44.9093 11L23.9567 13.2151L22.7927 34.9908L44.9093 11Z" fill="#FDD231"/>
<path d="M44.9092 11L65.8618 13.2151L67.0258 34.9908L44.9092 11Z" fill="#FDD231"/>
<path d="M82.0832 34.9908L65.8617 13.2151L67.0259 34.9908H82.0832Z" fill="#FDAD00"/>
<path d="M7.73541 34.9908L23.9567 13.2151L22.7927 34.9908H7.73541Z" fill="#FDAD00"/>
<path d="M44.9093 11L22.7927 34.9908H67.0259L44.9093 11Z" fill="#FEEEB7"/>
</svg>
