<svg width="106" height="106" viewBox="0 0 106 106" fill="none" xmlns="http://www.w3.org/2000/svg">
<g filter="url(#filter0_d_3063_6173)">
<rect width="90" height="90" transform="translate(8 4)" fill="white"/>
<path fill-rule="evenodd" clip-rule="evenodd" d="M62.3042 15.1569L24.149 17.9769C21.0709 18.2432 20 20.2559 20 22.6681V64.523C20 66.4019 20.6668 68.0095 22.2755 70.1582L31.2446 81.828C32.7181 83.7068 34.0579 84.1098 36.8713 83.976L81.18 81.2919C84.9264 81.0249 86 79.2792 86 76.3288V29.2417C86 27.7168 85.398 27.2773 83.6259 25.9759L71.1422 17.1689C68.1957 15.0251 66.9911 14.7546 62.3042 15.1569ZM37.8732 28.4709C34.2552 28.7145 33.4346 28.7697 31.3797 27.0979L26.1557 22.94C25.6247 22.4018 25.8916 21.7304 27.2293 21.5966L63.9087 18.9146C66.989 18.6455 68.5929 19.7198 69.7975 20.6582L76.0883 25.219C76.3573 25.3549 77.0261 26.1574 76.2214 26.1574L38.3421 28.4392L37.8732 28.4709ZM33.6552 75.9265V35.9532C33.6552 34.2075 34.191 33.4023 35.7949 33.2671L79.3017 30.7183C80.7773 30.5851 81.4441 31.5235 81.4441 33.2664V72.9733C81.4441 74.719 81.1752 76.1956 78.7666 76.3288L37.1334 78.7437C34.7247 78.8769 33.6552 78.0745 33.6552 75.9265ZM74.7527 38.0963C75.0195 39.3038 74.7527 40.5113 73.546 40.6493L71.5394 41.0474V70.5604C69.7969 71.4988 68.193 72.035 66.8525 72.035C64.71 72.035 64.1749 71.3636 62.5703 69.353L49.4481 48.6946V68.6816L53.5992 69.6221C53.5992 69.6221 53.5992 72.037 50.2501 72.037L41.0169 72.5732C40.748 72.035 41.0169 70.6943 41.9527 70.4273L44.364 69.758V43.3313L41.0176 43.0601C40.7487 41.8526 41.4176 40.109 43.2931 39.9738L53.2 39.3066L66.8531 60.232V41.7195L63.373 41.3193C63.104 39.8406 64.1749 38.7663 65.5127 38.6352L74.7527 38.0963Z" fill="black"/>
</g>
<defs>
<filter id="filter0_d_3063_6173" x="0" y="0" width="106" height="106" filterUnits="userSpaceOnUse" color-interpolation-filters="sRGB">
<feFlood flood-opacity="0" result="BackgroundImageFix"/>
<feColorMatrix in="SourceAlpha" type="matrix" values="0 0 0 0 0 0 0 0 0 0 0 0 0 0 0 0 0 0 127 0" result="hardAlpha"/>
<feOffset dy="4"/>
<feGaussianBlur stdDeviation="4"/>
<feComposite in2="hardAlpha" operator="out"/>
<feColorMatrix type="matrix" values="0 0 0 0 0 0 0 0 0 0 0 0 0 0 0 0 0 0 0.25 0"/>
<feBlend mode="normal" in2="BackgroundImageFix" result="effect1_dropShadow_3063_6173"/>
<feBlend mode="normal" in="SourceGraphic" in2="effect1_dropShadow_3063_6173" result="shape"/>
</filter>
</defs>
</svg>
