<svg width="90" height="90" viewBox="0 0 90 90" fill="none" xmlns="http://www.w3.org/2000/svg">
<rect width="90" height="90" fill="white"/>
<path d="M11.6522 34.6479C11.6522 34.6479 9.98261 33.4444 11.9861 31.8375L16.6539 27.6635C16.6539 27.6635 17.9896 26.2583 19.4017 27.4827L62.4765 60.0949V75.7331C62.4765 75.7331 62.4557 78.1888 59.3044 77.9175L11.6522 34.6479Z" fill="#2489CA"/>
<path d="M22.7548 44.7279L11.6522 54.8218C11.6522 54.8218 10.5113 55.6705 11.6522 57.187L16.807 61.8757C16.807 61.8757 18.0313 63.1905 19.84 61.6949L31.6105 52.7697L22.7548 44.7279Z" fill="#1070B3"/>
<path d="M42.247 44.8114L62.6087 29.2636L62.4766 13.7088C62.4766 13.7088 61.607 10.314 58.7061 12.0809L31.6105 36.7418L42.247 44.8114Z" fill="#0877B9"/>
<path d="M59.3044 77.9383C60.487 79.1488 61.92 78.7523 61.92 78.7523L77.7879 70.9331C79.8192 69.5488 79.534 67.8305 79.534 67.8305V21.1383C79.534 19.0862 77.4331 18.3766 77.4331 18.3766L63.68 11.747C60.6748 9.88963 58.7061 12.0809 58.7061 12.0809C58.7061 12.0809 61.2383 10.2583 62.4766 13.7088V75.4479C62.4766 75.8723 62.3861 76.2897 62.2052 76.6653C61.8435 77.3957 61.0574 78.0775 59.1722 77.7923L59.3044 77.9383Z" fill="#3C99D4"/>
</svg>
