<svg width="90" height="90" viewBox="0 0 90 90" fill="none" xmlns="http://www.w3.org/2000/svg">
<rect width="90" height="90" fill="white"/>
<mask id="mask0_3063_6204" style="mask-type:luminance" maskUnits="userSpaceOnUse" x="5" y="21" width="80" height="48">
<path d="M5 21.2088H85V68.973H5V21.2088Z" fill="white"/>
</mask>
<g mask="url(#mask0_3063_6204)">
<path fill-rule="evenodd" clip-rule="evenodd" d="M45 21.2088C34.3333 21.2088 27.6667 26.516 25 37.1302C29 31.8231 33.6667 29.8329 39 31.1597C42.043 31.916 44.2178 34.114 46.6252 36.5449C50.5467 40.5061 55.0859 45.0909 65 45.0909C75.6667 45.0909 82.3333 39.7838 85 29.1695C81 34.4766 76.3333 36.4668 71 35.14C67.957 34.3838 65.7822 32.1857 63.3748 29.7548C59.4533 25.7936 54.9141 21.2088 45 21.2088ZM25 45.0909C14.3333 45.0909 7.66667 50.398 5 61.0123C9 55.7051 13.6667 53.715 19 55.0418C22.043 55.7995 24.2178 57.9961 26.6252 60.427C30.5467 64.3882 35.0859 68.973 45 68.973C55.6667 68.973 62.3333 63.6658 65 53.0516C61 58.3587 56.3333 60.3489 51 59.0221C47.957 58.2658 45.7822 56.0678 43.3748 53.6368C39.4533 49.6757 34.9141 45.0909 25 45.0909Z" fill="#38BDF8"/>
</g>
</svg>
