<svg width="90" height="90" viewBox="0 0 90 90" fill="none" xmlns="http://www.w3.org/2000/svg">
<rect width="90" height="90" fill="#222222"/>
<path d="M44.9304 52.4714C49.0869 52.4714 52.4565 49.1018 52.4565 44.9453C52.4565 40.7887 49.0869 37.4192 44.9304 37.4192C40.7738 37.4192 37.4042 40.7887 37.4042 44.9453C37.4042 49.1018 40.7738 52.4714 44.9304 52.4714Z" fill="#00D8FF"/>
<path d="M44.9303 29.6443C55.0331 29.6443 64.4197 31.0944 71.4956 33.5293C80.0215 36.4641 85.2644 40.9136 85.2644 44.9428C85.2644 49.1411 79.7082 53.8692 70.553 56.901C63.6312 59.1942 54.5208 60.393 44.9303 60.393C35.0962 60.393 25.7868 59.2688 18.7854 56.8762C9.92869 53.8493 4.59375 49.0615 4.59375 44.9428C4.59375 40.946 9.60038 36.5313 18.0069 33.6014C25.1102 31.1267 34.7281 29.6443 44.9303 29.6443Z" stroke="#00D8FF" stroke-width="3.60004" stroke-miterlimit="10"/>
<path d="M31.6117 37.3396C36.6581 28.5873 42.6049 21.1806 48.2507 16.2684C55.0531 10.349 61.5271 8.031 65.0166 10.0431C68.6528 12.1398 69.9735 19.3152 68.026 28.7639C66.5536 35.907 63.0418 44.3956 58.249 52.7052C53.3369 61.2237 47.711 68.7274 42.1423 73.5972C35.0962 79.7579 28.2814 81.9864 24.7148 79.9295C21.2527 77.9323 19.9295 71.3911 21.5885 62.6438C22.9912 55.2471 26.513 46.1764 31.6117 37.3396Z" stroke="#00D8FF" stroke-width="3.60004" stroke-miterlimit="10"/>
<path d="M31.6241 52.7226C26.5628 43.9778 23.1156 35.1285 21.678 27.7839C19.9469 18.9347 21.1706 12.1671 24.6576 10.1501C28.2913 8.04593 35.1658 10.4858 42.3785 16.8902C47.8329 21.7327 53.4314 29.0151 58.2366 37.3172C63.1637 45.8282 66.8571 54.4487 68.2922 61.7037C70.1103 70.8863 68.6379 77.9025 65.0738 79.9644C61.6142 81.9665 55.2869 79.8474 48.5367 74.04C42.8362 69.1328 36.7352 61.552 31.6241 52.7226Z" stroke="#00D8FF" stroke-width="3.60004" stroke-miterlimit="10"/>
</svg>
