<svg width="90" height="90" viewBox="0 0 90 90" fill="none" xmlns="http://www.w3.org/2000/svg">
<rect width="90" height="90" fill="white"/>
<path fill-rule="evenodd" clip-rule="evenodd" d="M49.9441 8.4423L73.8868 22.3809C76.7122 24.0343 78.4702 27.069 78.4702 30.3339V58.881C78.4702 62.5017 76.5238 65.8503 73.3426 67.6292L49.5883 81.0028C46.428 82.7818 42.5771 82.7608 39.4378 80.9609L17.5671 68.3827C14.1347 66.3944 12 62.7319 12 58.7763V31.6734C12 27.676 14.072 23.9715 17.4624 21.8787L38.9774 8.5888C42.326 6.51684 46.5536 6.47498 49.9441 8.4423Z" fill="#FF4088" stroke="#C9177E" stroke-width="5.6508"/>
<path fill-rule="evenodd" clip-rule="evenodd" d="M28.6175 66.1642V22.7995H37.7007V38.6009H52.7486V22.7995H61.8526V66.1642H52.7486V47.2026H37.7007V66.1642H28.6175Z" fill="white"/>
</svg>
