<svg width="90" height="90" viewBox="0 0 90 90" fill="none" xmlns="http://www.w3.org/2000/svg">
<rect width="90" height="90" rx="8" fill="white"/>
<path d="M41.763 6.00054C39.112 6.01303 36.5803 6.24236 34.3527 6.64216C27.7905 7.81806 26.599 10.2793 26.599 14.8183V20.8129H42.1064V22.8111H26.599H20.7793C16.2724 22.8111 12.326 25.5587 11.0917 30.7855C9.66786 36.7768 9.6047 40.5154 11.0917 46.7711C12.194 51.4277 14.8265 54.7456 19.3334 54.7456H24.6651V47.5594C24.6651 42.3678 29.0937 37.7884 34.3527 37.7884H49.842C54.1537 37.7884 57.5957 34.1876 57.5957 29.7956V14.8183C57.5957 10.5556 54.0503 7.35358 49.842 6.64216C47.1781 6.19238 44.414 5.98805 41.763 6.00054ZM33.3767 10.8219C34.9785 10.8219 36.2866 12.1703 36.2866 13.8283C36.2866 15.4805 34.9785 16.8165 33.3767 16.8165C31.7692 16.8165 30.4668 15.4805 30.4668 13.8283C30.4668 12.1703 31.7692 10.8219 33.3767 10.8219Z" fill="url(#paint0_linear_2857_6728)"/>
<path d="M59.5296 22.8111V29.7956C59.5296 35.2106 55.0034 39.7683 49.842 39.7683H34.3527C30.1099 39.7683 26.599 43.4514 26.599 47.7611V62.7384C26.599 67.0011 30.2535 69.5083 34.3527 70.7312C39.2615 72.1952 43.9687 72.4598 49.842 70.7312C53.746 69.5847 57.5957 67.2774 57.5957 62.7384V56.7438H42.1064V54.7456H57.5957H65.3493C69.8562 54.7456 71.5356 51.5571 73.103 46.7712C74.722 41.8441 74.6531 37.106 73.103 30.7856C71.9892 26.2348 69.8619 22.8111 65.3493 22.8111H59.5296ZM50.818 60.7402C52.4255 60.7402 53.7279 62.0762 53.7279 63.7284C53.7279 65.3864 52.4255 66.7348 50.818 66.7348C49.2162 66.7348 47.9081 65.3864 47.9081 63.7284C47.9081 62.0762 49.2162 60.7402 50.818 60.7402Z" fill="url(#paint1_linear_2857_6728)"/>
<path opacity="0.44382" d="M42.2823 85C53.7594 85 63.0635 83.1701 63.0635 80.9128C63.0635 78.6555 53.7594 76.8256 42.2823 76.8256C30.8052 76.8256 21.5012 78.6555 21.5012 80.9128C21.5012 83.1701 30.8052 85 42.2823 85Z" fill="url(#paint2_radial_2857_6728)"/>
<defs>
<linearGradient id="paint0_linear_2857_6728" x1="10" y1="6" x2="46.1841" y2="36.3995" gradientUnits="userSpaceOnUse">
<stop stop-color="#5A9FD4"/>
<stop offset="1" stop-color="#306998"/>
</linearGradient>
<linearGradient id="paint1_linear_2857_6728" x1="50.4453" y1="63.2244" x2="37.3743" y2="45.166" gradientUnits="userSpaceOnUse">
<stop stop-color="#FFD43B"/>
<stop offset="1" stop-color="#FFE873"/>
</linearGradient>
<radialGradient id="paint2_radial_2857_6728" cx="0" cy="0" r="1" gradientUnits="userSpaceOnUse" gradientTransform="translate(42.2823 80.9128) rotate(-90) scale(4.08722 17.712)">
<stop stop-color="#B8B8B8" stop-opacity="0.498039"/>
<stop offset="1" stop-color="#7F7F7F" stop-opacity="0"/>
</radialGradient>
</defs>
</svg>
