<svg width="90" height="90" viewBox="0 0 90 90" fill="none" xmlns="http://www.w3.org/2000/svg">
<rect width="90" height="90" rx="8" fill="#134881"/>
<path d="M83.4091 79.9197C83.3937 81.847 81.8242 83.4082 79.8933 83.4082H44.4131L29.2474 57.14H83.4091V79.9197ZM6.59283 79.892V64.4689L40.0079 6.59155H53.0666L24.8371 55.4882L40.9558 83.4078H10.1083C8.16783 83.4078 6.59283 81.8325 6.59283 79.892ZM49.4103 54.1443H36.2077C34.7333 54.1443 33.3714 53.371 32.6353 52.0939C31.8973 50.8179 31.8973 49.2448 32.6353 47.9687L39.2397 36.5278L49.4103 54.1443ZM79.8937 6.59155C81.8245 6.59155 83.394 8.15241 83.4094 10.0803V54.1443H52.8692L40.9683 33.5343L56.5235 6.59155H79.8937Z" fill="url(#paint0_radial_1451_9940)"/>
<defs>
<radialGradient id="paint0_radial_1451_9940" cx="0" cy="0" r="1" gradientUnits="userSpaceOnUse" gradientTransform="translate(65.3392 -7.89355) scale(91.247)">
<stop stop-color="#6BE1FB"/>
<stop offset="1" stop-color="#38BDFA"/>
</radialGradient>
</defs>
</svg>
