<svg width="90" height="90" viewBox="0 0 90 90" fill="none" xmlns="http://www.w3.org/2000/svg">
<rect width="90" height="90" fill="white"/>
<path d="M18.0859 75.2812L12 7H78.9453L72.8594 75.2812L45.3984 83" fill="#E34F26"/>
<path d="M44.9863 77.0625L67.1035 70.9766L72.2988 12.4922H44.9863" fill="#EF652A"/>
<path d="M44.9863 37.875H33.8535L33.1113 29.2656H44.9863V20.9531H44.8379H23.9082L24.0566 23.1797L26.1348 46.3359H44.9863V37.875ZM44.9863 59.6953H44.8379L35.4863 57.1719L34.8926 50.4922H30.4395H26.5801L27.6191 63.7031L44.8379 68.4531H44.9863V59.6953Z" fill="#EBEBEB"/>
<path d="M44.8379 37.875V46.3359H55.2285L54.1895 57.1719L44.8379 59.6953V68.4531L62.0566 63.7031L62.2051 62.2188L64.1348 40.1016L64.4316 37.875H62.0566H44.8379ZM44.8379 20.9531V26.1484V29.2656H65.1738L65.3223 27.4844L65.7676 23.1797L65.916 20.9531H44.8379Z" fill="white"/>
</svg>
