<svg width="90" height="90" viewBox="0 0 90 90" fill="none" xmlns="http://www.w3.org/2000/svg">
<rect width="90" height="90" fill="white"/>
<path d="M8.32422 52.5156L4 4H51.5664L47.2422 52.5156L27.7305 58" fill="#E34F26"/>
<path d="M27.4377 53.7812L43.1525 49.457L46.8439 7.90234H27.4377" fill="#EF652A"/>
<path d="M27.4377 25.9375H19.5275L19.0002 19.8203H27.4377V13.9141H27.3322H12.4611L12.5666 15.4961L14.0431 31.9492H27.4377V25.9375ZM27.4377 41.4414H27.3322L20.6877 39.6484L20.2658 34.9023H17.1017H14.3595L15.0978 44.2891L27.3322 47.6641H27.4377V41.4414Z" fill="#EBEBEB"/>
<path d="M27.3322 25.9375V31.9492H34.715L33.9767 39.6484L27.3322 41.4414V47.6641L39.5666 44.2891L39.672 43.2344L41.0431 27.5195L41.2541 25.9375H39.5666H27.3322ZM27.3322 13.9141V17.6055V19.8203H41.7814L41.8869 18.5547L42.2033 15.4961L42.3087 13.9141H27.3322Z" fill="white"/>
<g clip-path="url(#clip0_4482_15559)">
<path d="M40.8047 80.4021L36.311 30H85.689L81.1905 80.3941L60.9698 86L40.8047 80.4021Z" fill="#264DE4"/>
<path d="M77.3393 77.1852L81.1836 34.121H61V81.7151L77.3393 77.1852Z" fill="#2965F1"/>
<path d="M46.6128 52.8146L47.1668 58.9961H61V52.8146H46.6128ZM46.0615 46.4845H61V40.3028H45.4995L46.0615 46.4845ZM61 68.8688L60.9729 68.8761L54.0884 67.0171L53.6484 62.0869H47.4429L48.309 71.793L60.9716 75.3083L61 75.3003V68.8688Z" fill="#EBEBEB"/>
<path d="M60.8806 52.75V58.9844H68.5368L67.7712 66.9688L60.8806 68.8281V75.2812L73.5681 71.7812L73.6774 70.6875L75.0993 54.3906L75.3181 52.75H73.5681H60.8806ZM60.8806 40.2812V44.1094V46.4062H75.8649L75.9743 45.0938L76.3024 41.9219L76.4118 40.2812H60.8806Z" fill="white"/>
<path d="M60.9787 52.8146V58.9961H68.5907L67.8732 67.0132L60.9787 68.874V75.3052L73.6513 71.793L73.7443 70.7486L75.1968 54.4744L75.3477 52.8146L76.4637 40.3028H60.9787V46.4845H69.6892L69.1266 52.8146H60.9787Z" fill="white"/>
</g>
<defs>
<clipPath id="clip0_4482_15559">
<rect width="50" height="56" fill="white" transform="translate(36 30)"/>
</clipPath>
</defs>
</svg>
