<svg width="90" height="90" viewBox="0 0 90 90" fill="none" xmlns="http://www.w3.org/2000/svg">
<rect width="90" height="90" fill="#F7DF1E"/>
<path d="M60.4571 70.3129C62.27 73.2729 64.6286 75.4486 68.8 75.4486C72.3043 75.4486 74.5429 73.6971 74.5429 71.2771C74.5429 68.3771 72.2429 67.35 68.3857 65.6629L66.2714 64.7557C60.1686 62.1557 56.1143 58.8986 56.1143 52.0129C56.1143 45.67 60.9471 40.8414 68.5 40.8414C73.8771 40.8414 77.7429 42.7129 80.5286 47.6129L73.9429 51.8414C72.4929 49.2414 70.9286 48.2171 68.5 48.2171C66.0229 48.2171 64.4529 49.7886 64.4529 51.8414C64.4529 54.3786 66.0243 55.4057 69.6529 56.9771L71.7671 57.8829C78.9529 60.9643 83.01 64.1057 83.01 71.1686C83.01 78.7829 77.0286 82.9543 68.9957 82.9543C61.1414 82.9543 56.0671 79.2114 53.5843 74.3057L60.4571 70.3129ZM30.5814 71.0457C31.91 73.4029 33.1186 75.3957 36.0243 75.3957C38.8029 75.3957 40.5557 74.3086 40.5557 70.0814V41.3243H49.0129V70.1957C49.0129 78.9529 43.8786 82.9386 36.3843 82.9386C29.6129 82.9386 25.6914 79.4343 23.6971 75.2136L30.5814 71.0457Z" fill="black"/>
</svg>
