<svg width="38" height="38" viewBox="0 0 38 38" fill="none" xmlns="http://www.w3.org/2000/svg">
<g clip-path="url(#clip0_1835_5001)">
<path fill-rule="evenodd" clip-rule="evenodd" d="M14.3781 7.49493C14.2047 7.44841 14.0238 7.43651 13.8458 7.45988C13.6677 7.48326 13.4961 7.54148 13.3406 7.63121C13.185 7.72095 13.0487 7.84043 12.9394 7.98283C12.83 8.12523 12.7498 8.28778 12.7033 8.46121C12.6567 8.63464 12.6448 8.81552 12.6682 8.99354C12.6916 9.17156 12.7498 9.3432 12.8395 9.49872C12.9293 9.65424 13.0487 9.79058 13.1912 9.89992C13.3336 10.0093 13.4961 10.0895 13.6695 10.136L26.8657 13.6696C27.0414 13.7241 27.2264 13.7425 27.4094 13.7238C27.5924 13.7051 27.7698 13.6497 27.9307 13.5608C28.0917 13.4718 28.2331 13.3513 28.3464 13.2065C28.4597 13.0616 28.5427 12.8953 28.5903 12.7176C28.6377 12.5399 28.6487 12.3544 28.6229 12.1723C28.5969 11.9902 28.5345 11.8151 28.4393 11.6578C28.3441 11.5004 28.218 11.3638 28.0687 11.2563C27.9197 11.1488 27.7503 11.0726 27.5706 11.0321L14.3763 7.49859L14.3781 7.49493ZM12.8463 13.2142C12.5005 13.1322 12.1365 13.1882 11.8314 13.3702C11.5262 13.5522 11.304 13.8459 11.2118 14.189C11.1196 14.5321 11.1647 14.8977 11.3376 15.2081C11.5104 15.5185 11.7975 15.7493 12.1377 15.8516L25.334 19.3889C25.6842 19.4826 26.0573 19.4334 26.3713 19.252C26.6852 19.0706 26.9141 18.7719 27.0079 18.4217C27.1014 18.0715 27.0524 17.6984 26.8708 17.3844C26.6895 17.0705 26.3908 16.8415 26.0406 16.7478L12.8463 13.2142ZM9.64053 19.8971C9.73446 19.5474 9.96331 19.2494 10.2768 19.0684C10.5903 18.8874 10.9629 18.8382 11.3126 18.9317L20.1101 21.2886C20.2834 21.335 20.4458 21.4152 20.5882 21.5243C20.7305 21.6334 20.85 21.7697 20.9397 21.9249C21.0295 22.0805 21.0877 22.2519 21.1111 22.4298C21.1346 22.6075 21.1228 22.7882 21.0764 22.9616C21.03 23.1348 20.9499 23.2974 20.8407 23.4396C20.7315 23.5821 20.5954 23.7014 20.44 23.7912C20.2847 23.8811 20.1132 23.9391 19.9353 23.9627C19.7574 23.9862 19.5767 23.9743 19.4034 23.9278L10.6059 21.571C10.4326 21.5246 10.2701 21.4444 10.1278 21.335C9.98549 21.2257 9.86609 21.0894 9.77645 20.934C9.6868 20.7785 9.62863 20.6069 9.60531 20.429C9.58199 20.2511 9.59398 20.0703 9.64053 19.8971Z" fill="black"/>
<path fill-rule="evenodd" clip-rule="evenodd" d="M23.0537 36.6905L5.46043 31.9784C4.17744 31.6345 3.08366 30.7949 2.41962 29.6446C1.7556 28.494 1.57574 27.1269 1.91956 25.844L7.81187 3.8502C8.15593 2.56721 8.9955 1.47343 10.1459 0.809407C11.2963 0.145387 12.6634 -0.0345015 13.9465 0.309352L31.5416 5.02138C32.8245 5.36544 33.9182 6.20498 34.5823 7.35543C35.2464 8.50585 35.4261 9.87293 35.0824 11.1559L29.1882 33.1477C28.8442 34.431 28.0047 35.5246 26.8541 36.1888C25.7038 36.8526 24.3367 37.0345 23.0537 36.6905ZM4.557 26.5506C4.47959 26.8396 4.45984 27.1408 4.49889 27.4372C4.5379 27.7335 4.63494 28.0194 4.78449 28.2784C4.934 28.5373 5.13304 28.7643 5.37031 28.9465C5.60754 29.1284 5.87829 29.2618 6.16712 29.3392L23.7621 34.053C24.3449 34.2088 24.9657 34.1272 25.4884 33.8255C26.0109 33.524 26.3923 33.0273 26.5489 32.4448L32.4431 10.4492C32.5205 10.1604 32.5403 9.85916 32.5012 9.56271C32.4621 9.26625 32.3652 8.98037 32.2156 8.72143C32.066 8.46247 31.8671 8.23552 31.6297 8.0535C31.3925 7.87149 31.1217 7.73798 30.8329 7.66063L13.2361 2.94495C12.653 2.7892 12.032 2.87128 11.5094 3.1732C10.9869 3.47512 10.6056 3.97217 10.4493 4.5551L4.557 26.5506Z" fill="black"/>
</g>
<defs>
<clipPath id="clip0_1835_5001">
<rect width="38" height="38" fill="white"/>
</clipPath>
</defs>
</svg>
