<svg width="38" height="38" viewBox="0 0 38 38" fill="none" xmlns="http://www.w3.org/2000/svg">
<g clip-path="url(#clip0_1472_3581)">
<path fill-rule="evenodd" clip-rule="evenodd" d="M39.5833 -1.58331H-1.58333V39.5834H39.5833V-1.58331ZM6.91414e-05 0H35.1872L38.0001 1.18017e-05V35.2613V38H2.80553L1.52588e-05 38.0247L6.09159e-05 2.73867L6.91414e-05 0ZM5.63327 32.3816H11.2739V14.2426H5.63327V32.3816ZM5.18053 8.50547C5.18053 10.309 6.64264 11.7711 8.45357 11.7711C10.2571 11.7711 11.7192 10.3016 11.7192 8.50547C11.7192 6.70195 10.2571 5.23984 8.45357 5.23984C6.64264 5.23984 5.18053 6.70195 5.18053 8.50547ZM26.7485 32.3816H32.3817V22.4289C32.3817 17.5453 31.3278 13.7898 25.6204 13.7898C22.8817 13.7898 21.0411 15.2965 20.2915 16.7215H20.2172V14.2426H14.8141V32.3816H20.4399V23.416C20.4399 21.0484 20.8852 18.7551 23.8169 18.7551C26.7114 18.7551 26.7485 21.4641 26.7485 23.5645V32.3816Z" fill="black"/>
</g>
<defs>
<clipPath id="clip0_1472_3581">
<rect width="38" height="38" fill="white"/>
</clipPath>
</defs>
</svg>
