<svg width="90" height="90" viewBox="0 0 90 90" fill="none" xmlns="http://www.w3.org/2000/svg">
<rect width="90" height="90" rx="8" fill="white"/>
<path d="M33.9975 65.6044C31.6181 63.7313 29.0813 61.9369 27.3431 59.4113C23.6925 54.9563 20.88 49.7925 18.9619 44.37C17.7975 40.8431 17.4038 37.0631 15.9019 33.6713C14.3381 31.2075 16.1719 28.5188 18.8663 27.7369C20.0644 27.5063 22.1794 26.37 19.6313 27.1856C17.3475 28.8619 17.1281 25.6613 19.4681 25.4588C21.0656 25.245 21.6563 23.94 21.1106 22.7588C19.395 21.6394 25.2731 20.4075 22.3144 18.7369C19.2319 15.4125 26.6231 14.7713 24.8006 18.5513C24.3675 21.4538 29.9644 18.0169 28.665 21.3694C29.9869 22.9781 33.615 21.735 33.5194 23.9963C35.4431 24.1313 36.1069 25.7456 37.9069 25.8694C39.78 26.7131 43.1719 27.3825 43.8075 29.4919C41.9513 30.96 37.6481 26.4544 37.4456 30.5269C38.0081 36.54 37.8619 42.7331 40.0613 48.4594C41.1019 51.9244 43.6219 54.6525 45.9 57.3525C48.0825 59.9963 51.03 61.8581 54.045 63.4275C56.6831 64.6706 59.5294 65.4975 62.4094 66.015C63.5738 65.1206 65.6381 61.8075 67.455 63.2025C67.545 64.7775 63.8438 66.4875 67.2806 66.3188C69.3 65.7113 70.7006 67.8769 72.3656 65.9194C73.8956 67.7363 78.7331 64.7606 77.6419 68.4675C76.1681 69.4181 74.0194 68.8444 72.54 70.155C70.1044 68.94 68.1694 71.2406 65.475 70.9538C62.4825 71.4881 59.4394 71.7075 56.4019 71.7075C51.4238 71.3138 46.3388 71.1506 41.6081 69.4181C38.9419 68.6419 36.3375 67.1231 33.9975 65.6044ZM38.1994 67.4269C40.8038 68.5519 43.3519 69.7388 46.2038 70.0988C50.7319 70.7288 55.4119 71.6963 59.9569 70.8131C57.8981 69.885 55.7719 71.1731 53.7244 70.1494C51.2663 70.6781 48.6281 70.0144 46.1306 69.6881C43.29 68.4225 40.2244 67.5506 37.5638 65.9081C34.2394 64.6931 39.285 67.4663 40.1794 67.6913C42.255 68.8725 37.8956 67.0838 37.2769 66.5944C35.5388 65.6156 35.3138 65.8238 37.1025 66.8138C37.4625 67.0219 37.8225 67.2469 38.1994 67.4269ZM33.2438 63.9225C35.7694 64.8563 33.2325 62.145 32.0794 62.3025C31.5675 61.4138 30.1219 60.8513 31.14 60.3731C29.3063 61.0088 29.2163 57.9544 28.3556 58.3875C26.415 57.7744 27.6019 55.6031 25.29 54.27C25.0819 52.8638 22.995 51.6488 22.3313 49.5281C22.0388 48.4425 19.9744 45.3319 21.24 48.2288C22.32 51.0188 24.2156 53.4094 25.7963 55.7944C27.0225 58.0669 28.4738 60.4406 30.7013 61.8581C31.455 62.5894 32.1806 63.6975 33.2438 63.9225ZM25.9706 55.9406C26.0606 55.5581 26.4319 56.7619 25.9706 55.9406V55.9406ZM36.2644 65.0419C35.46 64.7269 36.8269 64.7944 36.2644 65.0419V65.0419ZM37.6369 65.5425C37.0125 65.9306 37.4963 64.8506 37.6369 65.5425V65.5425ZM39.3525 66.2569C38.0925 65.7675 40.1681 65.4806 39.3525 66.2569V66.2569ZM42.2888 67.8938C40.7025 67.6181 42.7894 67.1625 42.2888 67.8938V67.8938ZM36.6469 63.9619C35.01 63.9506 37.9125 63.1406 36.6469 63.9619V63.9619ZM37.935 64.6031C37.4738 64.7944 37.8956 64.17 37.935 64.6031V64.6031ZM44.3644 68.6138C45.3994 69.2663 50.4 70.0425 47.2669 68.8838C46.7438 68.9963 41.4563 67.3875 44.3644 68.6138ZM34.155 60.6656C32.5519 60.1875 34.0538 60.2325 34.155 60.6656V60.6656ZM37.1475 62.4094C35.5331 61.9931 37.9294 61.8694 37.1475 62.4094V62.4094ZM39.6675 63.9563C37.8506 63.5344 40.7813 63.5344 39.6675 63.9563V63.9563ZM32.9344 59.3381C34.1494 60.2663 37.8281 59.4563 34.7906 58.7813C33.4125 58.0444 30.2963 57.5438 32.4169 59.2256L32.9344 59.3381ZM41.3719 64.4906C39.2513 63.9956 41.8781 63.63 41.3719 64.4906V64.4906ZM38.8069 62.4488C41.7713 63.2869 36.315 60.57 38.0756 62.1394L38.4694 62.3194L38.8069 62.4488ZM43.9481 65.4188C41.4113 65.0363 46.755 65.4469 43.9481 65.4188V65.4188ZM31.8544 57.7125C31.1625 57.7575 31.7475 57.1894 31.8544 57.7125V57.7125ZM48.6956 68.085C47.7844 68.7881 48.7744 67.14 48.6956 68.085V68.085ZM36.6469 60.6488C35.7694 60.6263 36.4781 60.1538 36.6469 60.6488V60.6488ZM32.1244 57.3863C29.9138 56.6775 33.7331 57.2906 32.1244 57.3863V57.3863ZM26.7581 53.9213C25.0031 52.5319 26.5556 53.145 26.7581 53.9213V53.9213ZM40.8375 62.8538C40.545 62.5163 40.6969 62.9269 40.8375 62.8538V62.8538ZM49.6013 68.2313C49.1231 68.4281 49.5731 67.7194 49.6013 68.2313V68.2313ZM40.0613 62.055C38.6888 61.8525 40.2188 61.3913 40.0613 62.055V62.055ZM33.5363 57.915C31.6125 57.105 34.7344 57.7856 33.5363 57.915V57.915ZM44.5781 64.7775C42.7556 64.4175 46.4456 64.035 44.5781 64.7775V64.7775ZM38.835 60.8794C40.9894 61.155 36.27 59.4113 38.3625 60.7219L38.835 60.8794ZM46.3219 65.4863C48.3356 64.2825 47.6719 68.3044 49.7363 65.8238C51.7725 64.3388 47.9756 67.6631 50.4844 66.0881C52.3013 64.8731 54.9788 66.6619 56.6719 67.2469C57.8869 67.185 59.0738 68.2988 60.3225 67.6238C62.7244 66.9769 55.62 66.6619 57.4819 65.5144C55.2825 66.1556 53.6569 64.7494 52.5769 63.3431C50.1075 62.775 47.2556 61.515 46.0238 59.3269C45.5231 58.5056 46.7494 59.445 45.5906 58.1006C44.1056 56.7788 43.3631 55.2769 42.3675 53.6681C41.175 53.0325 41.0344 51.1594 40.9163 53.6063C40.9275 52.065 39.4763 51.0244 39.1219 51.4575C39.1163 49.9725 40.6744 50.715 39.5831 49.6181C39.3469 48.0769 38.5763 46.4738 38.3456 44.7356C37.9856 43.8975 38.295 42.1031 37.1138 43.9988C36.6863 46.0069 36.9731 41.535 37.6425 43.0088C38.52 41.5069 37.3275 41.6813 37.2769 41.8894C37.8506 40.6181 37.6369 38.8181 37.125 39.5044C37.4288 38.16 37.6088 34.5544 36.6694 35.1956C37.2375 33.7894 37.7494 28.7606 35.28 30.6788C34.2788 30.6956 32.5519 31.0388 31.7306 31.4494C34.2956 32.8613 31.4719 31.9613 30.4256 31.7363C30.2906 33.0469 29.2556 32.4788 27.9619 32.49C30.0263 32.7431 26.955 34.5994 25.7738 33.8794C24.2325 34.6163 27.1013 36.45 25.8019 37.0181C25.9594 37.8731 23.445 36.7088 23.6419 38.6831C22.1513 38.0531 23.4394 41.0231 24.1819 40.0219C26.7188 40.7081 25.9706 42.2775 26.0325 43.7625C25.6163 44.6288 23.9906 41.7263 25.6725 41.8613C24.345 39.7069 24.2044 41.085 23.1075 42.0806C22.8544 42.1538 25.9144 43.5038 23.9906 44.1731C25.6838 44.4375 25.7344 45.9169 26.0775 46.8506C27.0956 47.9081 26.8875 45.6806 28.1025 46.9519C27.3319 45.8156 24.0244 43.7569 26.685 44.415C26.6681 43.2731 26.2013 42.3506 27.0225 42.3731C27.8325 40.9106 26.1731 45.9844 27.9956 44.1225C28.5019 43.9031 28.6256 42.66 29.5313 44.2406C30.8475 45.5344 30.0094 46.4738 28.1475 45.2869C28.4794 46.4175 30.6338 46.8169 30.2288 48.5831C30.6563 50.1356 31.2581 49.5619 31.7813 49.4719C32.1919 50.9794 32.4225 49.8713 32.445 49.1513C34.3238 49.5563 33.885 50.6644 34.47 51.4406C35.7638 52.0256 32.6194 47.4806 34.8413 50.0738C37.1813 52.1831 35.7188 53.0663 33.6206 52.7288C34.9481 52.6219 35.3756 54.5231 37.035 54.4556C38.5481 55.1756 39.5775 57.9431 36.9675 56.79C36.0619 55.9744 32.8556 54.9675 35.4769 56.52C37.8956 57.6394 39.8138 58.3088 42.1481 59.715C43.8131 60.9075 44.5388 62.2688 45.1688 62.5388C43.7681 63.2081 40.9444 62.0044 43.0425 61.6331C41.7319 61.3969 40.2638 60.7331 41.5181 62.3644C42.5813 63.2531 45.2925 63.1631 45.7819 63.2588C45.3713 64.1644 44.6625 64.2375 45.7988 64.305C44.5331 64.9913 46.2038 65.0981 46.3219 65.4863ZM43.7344 58.1738C42.9638 57.3694 42.7669 55.8619 43.5994 57.1725C44.0213 57.3413 44.9663 59.6363 43.7344 58.1738ZM52.1663 63.5288C52.1775 63.8944 52.6444 63.495 52.1663 63.5288V63.5288ZM42.5194 56.1994C42.4856 54.9788 42.795 57.1388 42.5194 56.1994V56.1994ZM41.6813 55.0688C40.7081 53.2013 42.9019 55.6031 41.6813 55.0688V55.0688ZM31.5225 48.06C31.8038 49.0331 32.0906 47.9081 31.5225 48.06V48.06ZM39.6056 52.4419C39.9544 51.1313 40.0163 53.5444 39.6056 52.4419V52.4419ZM33.8963 48.4706C33.4969 47.745 34.74 49.1513 33.8963 48.4706V48.4706ZM38.7956 50.04C37.8788 47.9869 39.4481 48.915 38.9981 50.3775L38.7956 50.04ZM30.3469 44.4094C29.9363 43.7344 29.2613 41.7544 29.475 41.1525C29.6719 42.1369 31.5675 45.3881 30.4031 42.4969C29.1206 40.0781 31.9388 43.2844 32.2313 43.8863C32.3663 44.4881 31.4381 43.7231 32.0681 45.1294C30.9206 43.5263 31.3931 46.0181 30.3469 44.4094ZM27.7369 42.6094C27.8438 41.04 28.3331 43.6838 27.7369 42.6094V42.6094ZM28.9069 43.0144C29.4694 41.8275 29.8575 44.6625 28.9069 43.0144V43.0144ZM26.0831 40.8263C25.11 39.8588 24.4069 38.97 26.1281 40.2244C26.7919 40.2525 24.6544 38.1994 26.2856 39.5719C28.0069 39.8869 27.135 42.39 26.0831 40.8263ZM27.5681 40.7869C27.8663 41.3381 28.1306 40.23 27.5681 40.7869V40.7869ZM28.4794 41.0794C27.6244 39.4763 29.52 41.7544 28.4794 41.0794V41.0794ZM26.6681 39.3469C23.8444 36.8325 30.2175 40.6631 27.1294 39.8138L26.6681 39.3469ZM34.7625 44.0494C33.5363 43.3181 34.4363 38.8856 34.8525 41.9175C36.0394 41.535 34.785 43.4813 35.6738 43.4644C35.5388 44.6906 35.1394 45.135 34.7625 44.0494ZM37.7606 45.8213C37.8788 44.4825 38.0138 46.7325 37.7606 45.8213V45.8213ZM37.2375 45.3038C37.2544 45.9788 37.3725 44.7356 37.2375 45.3038V45.3038ZM27.2194 38.52C25.4025 36.0169 32.4956 41.0569 28.3838 39.1556C27.9506 39.0375 27.4331 38.9981 27.2194 38.52ZM32.9906 41.5744C32.8163 39.465 33.3731 41.9231 32.9906 41.5744V41.5744ZM37.3669 44.3869C37.395 45.18 37.7044 43.1831 37.3669 44.3869V44.3869ZM27.5006 37.5638C28.5806 37.3331 31.9725 39.4594 28.8563 38.1713C28.5075 37.7831 27.7706 37.9575 27.5006 37.5638ZM36.765 42.1819C36.8775 40.0219 37.4119 40.8938 36.7706 42.4913L36.765 42.1819ZM28.2994 36.81C28.7381 36.1631 27.1294 33.8963 28.53 35.9944C29.1375 36.4725 30.2794 36.7988 29.2669 37.0013C30.8644 38.4075 28.8844 37.3838 28.2994 36.81ZM36.3094 41.5069C36.5738 42.9469 36.6131 39.0488 36.3094 41.5069V41.5069ZM27.3825 34.5431C27.5625 34.9875 27.72 34.3969 27.3825 34.5431V34.5431ZM29.4694 35.7863C30.0094 34.6556 30.465 37.0406 29.4694 35.7863V35.7863ZM35.3588 39.06C35.3588 38.6269 35.4713 39.69 35.3588 39.06V39.06ZM35.0213 38.3063C34.2056 36.2869 35.7806 39.375 35.0213 38.3063V38.3063ZM34.5206 36.9844C34.38 36.1519 34.9875 38.0306 34.5206 36.9844V36.9844ZM35.3363 35.6569C34.7738 34.6669 36.045 31.2975 36.1856 33.39C35.595 35.0156 36.0169 35.9269 36.4275 33.7444C37.1925 32.0231 36.2644 37.1306 35.3363 35.6569ZM36.1744 30.645C36.2306 31.0106 36.4219 30.3469 36.1744 30.645V30.645ZM34.7738 58.275C34.4419 57.9825 34.8131 58.4606 34.7738 58.275V58.275ZM37.6594 59.7375C39.2681 60.1538 39.2569 59.49 37.8056 59.2931C37.0238 58.5675 34.56 57.7969 36.765 59.2031C36.9169 59.5688 37.3781 59.5575 37.6594 59.7375ZM31.9556 55.9463C32.8388 56.61 35.2913 57.8138 33.2156 56.1994C33.9131 55.3894 31.8769 54.9563 32.5519 54.4106C30.8306 53.3588 31.1963 53.4544 32.4 53.4881C30.3356 52.5656 32.6981 52.6331 32.5856 52.1606C31.7869 52.0031 28.6313 50.7544 30.4875 52.2619C28.5975 51.3 30.0375 52.6219 29.4638 52.4813C27.5288 51.9525 31.185 53.955 29.16 53.4544C30.2681 54.3319 32.1413 55.7044 29.6269 54.3825C29.3063 54.8606 31.4325 55.5863 31.9556 55.9463ZM34.9763 57.6844C33.1763 56.2331 38.6494 58.8656 34.9763 57.6844V57.6844ZM50.445 67.05C49.9388 67.6744 50.49 66.3188 50.445 67.05V67.05ZM52.0313 67.7194C52.8806 66.8981 52.065 69.03 53.4375 67.5169C53.4544 66.4369 53.3981 65.7956 51.8625 67.1119C51.4406 67.3481 51.2494 68.3438 52.0313 67.7194ZM26.8031 51.8738C24.975 50.8556 26.5388 50.85 26.8031 51.8738V51.8738ZM28.4963 52.9875C26.2463 52.0425 27.8663 51.9413 28.4963 52.9875V52.9875ZM38.1544 58.8094C39.0994 59.6475 42.4856 59.4225 39.2963 58.9106C38.8294 58.2131 36.3038 58.3819 38.1544 58.8094ZM51.4294 67.005C50.0231 67.5506 52.875 65.79 51.4294 67.005V67.005ZM54.4444 69.0806C53.82 69.2494 54.4556 68.6925 54.4444 69.0806V69.0806ZM54.45 68.535C52.8919 68.6363 56.0588 66.8306 54.45 68.535V68.535ZM22.6238 48.3806C21.2569 46.4288 21.7744 45.5513 20.4525 43.9538C20.1994 42.7331 18.1856 39.9656 19.4119 42.8963C20.5313 44.6119 20.8631 47.2669 22.6238 48.3806ZM53.9438 67.995C52.7344 67.1625 56.9025 66.0825 53.9438 67.995V67.995ZM56.1994 68.8781C55.2656 68.6138 57.6844 67.6069 56.1994 68.8781V68.8781ZM26.2969 49.7138C25.2056 49.635 26.7244 49.0838 26.2969 49.7138V49.7138ZM55.7325 68.2706C57.1669 67.3481 55.4006 67.4888 55.4738 68.355L55.7325 68.2706ZM36.2813 56.0138C35.5219 56.0644 36.2306 55.3894 36.2813 56.0138V56.0138ZM37.485 56.7056C36.8944 56.8238 37.0969 55.9294 37.485 56.7056V56.7056ZM58.0331 68.895C59.8725 67.5675 56.9194 68.6419 57.6506 69.1481L58.0331 68.895ZM57.3244 68.5575C55.7494 69.1144 58.8263 67.3031 57.3244 68.5575V68.5575ZM60.9188 70.9481C59.6981 70.7344 61.9256 70.2788 60.9188 70.9481V70.9481ZM27.2194 49.2581C28.5638 49.5619 32.5969 52.5713 30.2175 49.4663C28.9969 49.1063 29.7281 46.125 28.485 46.6538C29.3175 48.0488 29.1713 48.6394 27.4163 47.7619C25.2169 46.6875 26.1788 48.2906 26.6119 48.735C26.0269 48.8756 27.3938 49.2469 27.2194 49.2581ZM21.0881 44.415C21.33 43.4194 18.8663 38.9306 19.9238 42.165C20.3063 42.8456 20.2669 44.1281 21.0881 44.415ZM32.3438 51.3563C31.6519 50.7769 32.31 51.2719 32.3438 51.3563V51.3563ZM34.0481 51.7556C32.1638 51.3225 34.0481 50.6981 34.0481 51.7556V51.7556ZM48.8419 61.0763C47.7281 61.065 48.5606 60.3563 48.8419 61.0763V61.0763ZM49.5506 61.5994C49.1456 61.6781 49.4494 61.1944 49.5506 61.5994V61.5994ZM55.4175 65.2894C54.7144 65.2388 55.98 64.8731 55.4175 65.2894V65.2894ZM24.1481 45.1969C22.4213 44.7525 25.7625 44.5725 24.1481 45.1969V45.1969ZM47.5425 59.9344C46.5131 60.1931 47.52 58.8881 47.5425 59.9344V59.9344ZM23.5125 43.7119C22.5506 43.4813 24.5475 43.3631 23.5125 43.7119V43.7119ZM26.5163 45.1688C26.2013 45.2981 26.4994 44.8256 26.5163 45.1688V45.1688ZM63.2025 67.6631C64.5356 67.3931 67.5731 68.3438 68.0625 67.3088C66.4425 67.2694 62.4656 66.1669 62.28 67.5675L62.6344 67.6238L63.2025 67.6631ZM27.4725 45.4106C26.6513 45.3713 27.5006 44.3531 27.4725 45.4106V45.4106ZM19.5694 39.9263C18.2025 39.6225 19.2094 37.9125 19.5694 39.9263V39.9263ZM21.4538 40.3988C19.7269 39.8194 21.4763 39.7519 21.4538 40.3988V40.3988ZM22.5281 40.9275C22.2188 40.68 22.2863 41.2481 22.5281 40.9275V40.9275ZM29.3119 45.2756C28.5525 45.0619 29.6325 44.9831 29.3119 45.2756V45.2756ZM21.8138 39.735C19.6313 39.51 21.6281 38.2106 21.8138 39.735V39.735ZM17.9494 37.2263C17.5725 37.4906 17.8931 36.5231 17.9494 37.2263V37.2263ZM18.5231 36.7931C18.0281 36.9 18.4275 35.9606 18.5231 36.7931V36.7931ZM21.7013 38.6888C23.0456 38.16 19.2544 37.5975 21.4256 38.5875L21.7013 38.6888ZM64.2206 64.9519C63.1294 64.71 65.0813 64.1644 64.2206 64.9519V64.9519ZM69.3563 67.6181C68.49 67.7475 69.6994 66.6 69.3563 67.6181V67.6181ZM22.0219 37.0238C20.9588 37.2206 22.1681 36.0394 22.0219 37.0238V37.0238ZM17.505 33.9975C17.2631 32.6081 17.2969 30.1613 19.62 30.9881C16.5206 31.6069 21.7688 34.8413 21.105 32.2875C22.41 32.3494 23.6531 31.5169 22.9725 32.7825C25.5431 32.5013 27.3206 30.2738 29.8013 30.5831C31.7363 30.3244 33.8456 30.1331 35.9269 29.3569C37.6369 29.2331 39.285 27.3881 38.3513 26.2969C36.0169 26.1 33.57 26.3925 30.9938 26.9044C28.1363 27.5006 25.5375 28.6256 22.6519 29.115C19.8394 29.4919 23.2144 30.1556 22.41 30.3019C20.9419 30.8081 24.1594 31.1569 22.2188 31.6913C21.0206 31.4606 19.7719 31.05 20.2838 29.79C17.5894 30.1388 15.2213 31.2581 17.3531 33.9975H17.505ZM23.9963 30.69C24.6263 28.3613 27.3769 32.6025 25.0313 30.9994C24.75 30.7856 24.2888 30.6169 23.9963 30.69ZM24.12 29.5594C24.6038 29.9419 25.0313 28.8844 24.12 29.5594V29.5594ZM25.2788 29.5819C25.3631 28.5131 27.9281 30.15 25.7006 29.9644L25.2788 29.5819ZM26.8594 28.9406C27.0281 29.5425 27.4388 28.2656 26.8594 28.9406V28.9406ZM27.2644 28.6706C28.2263 27.5119 32.715 27.9338 29.43 28.5581C28.5525 27.8944 27.8775 28.9519 27.2644 28.6706ZM33.1256 27.7706C32.9794 24.6094 36.0394 28.89 33.1256 27.7706V27.7706ZM34.7906 27.7594C35.3981 26.1675 37.1531 27.1181 35.0719 27.4388C35.1169 27.6075 35.01 28.26 34.7906 27.7594ZM21.3694 36.2081C19.44 35.2406 23.1863 35.0944 21.3694 36.2081V36.2081ZM22.7138 36.5794C21.33 36.3038 23.3494 35.9044 22.7138 36.5794V36.5794ZM18.7538 33.7725C17.5275 33.4688 19.7944 32.9738 18.7538 33.7725V33.7725ZM72.3881 67.3256C71.595 67.7419 72.4163 66.3975 72.3881 67.3256V67.3256ZM66.9375 63.6075C66.24 63.6975 67.095 62.5388 66.9375 63.6075V63.6075ZM73.89 67.6856C75.3413 67.6913 78.2888 67.2356 75.1275 67.2356C74.6325 67.3088 72.2419 67.2975 73.89 67.6856ZM23.895 35.9269C25.0706 35.8481 25.7344 34.6331 23.6644 34.7006C20.4638 34.3688 26.4881 35.7975 23.2538 35.3869C22.8206 35.6738 23.8669 36.0056 23.895 35.9269ZM24.93 36.45C24.5644 36.8494 24.8063 35.6963 24.93 36.45V36.45ZM26.1563 33.1763C25.4475 33.0075 26.6625 32.5463 26.1563 33.1763V33.1763ZM22.2469 26.6513C24.345 25.9369 27.2081 25.1381 28.1981 27C27.1913 25.7906 27.7931 24.5925 28.7438 26.37C30.0881 28.1644 30.7631 25.5544 29.8856 24.9525C30.8813 26.19 32.0175 26.775 30.555 25.0313C32.1469 23.1188 27.3713 25.2844 26.2856 25.2619C25.7681 25.4925 20.8969 26.4994 22.2469 26.6513ZM23.4788 24.3C24.6769 23.4 27.6131 24.84 25.7288 23.4056C25.5431 23.2369 21.5944 24.4913 23.4788 24.3ZM27.8381 24.48C29.2388 24.5138 27.2363 22.6013 28.9013 23.4675C28.6256 22.5731 26.9606 22.4044 26.145 22.05C25.6838 22.8656 27.0788 24.4913 27.8381 24.48ZM24.2438 20.52C23.3944 20.8575 24.7275 19.8675 24.2438 20.52V20.52ZM26.0213 20.9475C28.2769 20.6494 25.4475 19.98 25.5656 20.925L26.0213 20.9475ZM22.6969 18.3488C21.1106 16.2731 25.6838 18.6975 24.0694 16.5263C22.7138 15.4463 21.4088 17.7413 22.6969 18.3488ZM43.065 29.3175C43.7906 28.0294 40.0613 27.5794 42.5756 28.8619C42.8119 28.9406 42.7556 29.4075 43.065 29.3175Z" fill="#010101"/>
</svg>
