<svg width="90" height="90" viewBox="0 0 90 90" fill="none" xmlns="http://www.w3.org/2000/svg">
<rect width="90" height="90" rx="8" fill="white"/>
<path d="M23.5556 54.7778C23.5556 59.0791 20.0791 62.5556 15.7778 62.5556C11.4764 62.5556 8 59.0791 8 54.7778C8 50.4764 11.4764 47 15.7778 47H23.5556V54.7778ZM27.4444 54.7778C27.4444 50.4764 30.9209 47 35.2222 47C39.5236 47 43 50.4764 43 54.7778V74.2222C43 78.5236 39.5236 82 35.2222 82C30.9209 82 27.4444 78.5236 27.4444 74.2222V54.7778Z" fill="#E01E5A"/>
<path d="M35.2353 23.5294C30.9412 23.5294 27.4706 20.0588 27.4706 15.7647C27.4706 11.4706 30.9412 8 35.2353 8C39.5294 8 43 11.4706 43 15.7647V23.5294H35.2353ZM35.2353 27.4706C39.5294 27.4706 43 30.9412 43 35.2353C43 39.5294 39.5294 43 35.2353 43H15.7647C11.4706 43 8 39.5294 8 35.2353C8 30.9412 11.4706 27.4706 15.7647 27.4706H35.2353Z" fill="#36C5F0"/>
<path d="M66.4444 35.2353C66.4444 30.9412 69.9209 27.4706 74.2222 27.4706C78.5236 27.4706 82 30.9412 82 35.2353C82 39.5294 78.5236 43 74.2222 43H66.4444V35.2353ZM62.5556 35.2353C62.5556 39.5294 59.0791 43 54.7778 43C50.4764 43 47 39.5294 47 35.2353V15.7647C47 11.4706 50.4764 8 54.7778 8C59.0791 8 62.5556 11.4706 62.5556 15.7647V35.2353Z" fill="#2EB67D"/>
<path d="M54.7647 66.4444C59.0588 66.4444 62.5294 69.9209 62.5294 74.2222C62.5294 78.5236 59.0588 82 54.7647 82C50.4706 82 47 78.5236 47 74.2222V66.4444H54.7647ZM54.7647 62.5556C50.4706 62.5556 47 59.0791 47 54.7778C47 50.4764 50.4706 47 54.7647 47H74.2353C78.5294 47 82 50.4764 82 54.7778C82 59.0791 78.5294 62.5556 74.2353 62.5556H54.7647Z" fill="#ECB22E"/>
</svg>
