<svg width="90" height="90" viewBox="0 0 90 90" fill="none" xmlns="http://www.w3.org/2000/svg">
<rect width="90" height="90" rx="8" fill="white"/>
<path fill-rule="evenodd" clip-rule="evenodd" d="M54.3042 11.1575L16.149 13.9774C13.0709 14.2438 12 16.2565 12 18.6687V60.5236C12 62.4024 12.6668 64.0101 14.2755 66.1588L23.2446 77.8286C24.7181 79.7074 26.0579 80.1104 28.8713 79.9765L73.18 77.2925C76.9264 77.0254 78 75.2798 78 72.3294V25.2423C78 23.7174 77.398 23.2778 75.6259 21.9765L63.1422 13.1695C60.1957 11.0257 58.9911 10.7545 54.3042 11.1568V11.1575ZM29.8732 24.4715C26.2552 24.7151 25.4346 24.7703 23.3797 23.0984L18.1557 18.9406C17.6247 18.4024 17.8916 17.731 19.2293 17.5971L55.9088 14.9151C58.989 14.646 60.5929 15.7204 61.7975 16.6588L68.0883 21.2196C68.3573 21.3555 69.0261 22.158 68.2214 22.158L30.3421 24.4398L29.8732 24.4715ZM25.6552 71.9271V31.9538C25.6552 30.2081 26.191 29.4029 27.7949 29.2677L71.3017 26.7188C72.7773 26.5857 73.4441 27.5241 73.4441 29.267V68.9739C73.4441 70.7196 73.1752 72.1962 70.7666 72.3294L29.1334 74.7443C26.7247 74.8775 25.6559 74.075 25.6559 71.9271H25.6552ZM66.7527 34.0969C67.0195 35.3044 66.7527 36.5119 65.546 36.6499L63.5394 37.048V66.561C61.7969 67.4994 60.193 68.0355 58.8525 68.0355C56.71 68.0355 56.1749 67.3642 54.5703 65.3535L41.4481 44.6952V64.6822L45.5992 65.6226C45.5992 65.6226 45.5992 68.0376 42.2501 68.0376L33.0169 68.5737C32.748 68.0355 33.0169 66.6949 33.9527 66.4279L36.364 65.7586V39.3319L33.0176 39.0607C32.7487 37.8532 33.4176 36.1096 35.2931 35.9744L45.2 35.3072L58.8531 56.2325V37.7201L55.373 37.3199C55.104 35.8412 56.1749 34.7669 57.5127 34.6358L66.7527 34.0969Z" fill="black"/>
</svg>
